<?xml version="1.0" encoding="UTF-8" standalone="no"?>
<!-- Created with Inkscape (http://www.inkscape.org/) -->

<svg
   width="1000"
   height="391"
   viewBox="0 0 264.58333 103.45208"
   version="1.1"
   id="svg1"
   inkscape:version="1.3 (0e150ed6c4, 2023-07-21)"
   sodipodi:docname="logo.svg"
   xmlns:inkscape="http://www.inkscape.org/namespaces/inkscape"
   xmlns:sodipodi="http://sodipodi.sourceforge.net/DTD/sodipodi-0.dtd"
   xmlns="http://www.w3.org/2000/svg"
   xmlns:svg="http://www.w3.org/2000/svg">
  <sodipodi:namedview
     id="namedview1"
     pagecolor="#ffffff"
     bordercolor="#111111"
     borderopacity="1"
     inkscape:showpageshadow="0"
     inkscape:pageopacity="0"
     inkscape:pagecheckerboard="1"
     inkscape:deskcolor="#d1d1d1"
     inkscape:document-units="mm"
     showguides="false"
     inkscape:zoom="0.53362093"
     inkscape:cx="240.80765"
     inkscape:cy="375.73489"
     inkscape:window-width="1440"
     inkscape:window-height="837"
     inkscape:window-x="-8"
     inkscape:window-y="-8"
     inkscape:window-maximized="1"
     inkscape:current-layer="layer1" />
  <defs
     id="defs1">
    <inkscape:path-effect
       effect="envelope"
       id="path-effect10"
       is_visible="true"
       lpeversion="1"
       yy="true"
       xx="false"
       bendpath1="M 1.540333e-4,4.7013164e-6 C 182.36312,13.615983 341.61835,15.452001 535.71315,4.7013164e-6"
       bendpath2="M 535.71315,4.7013164e-6 V 51.093921"
       bendpath3="M 1.540333e-4,51.093921 C 176.69154,36.470346 355.27775,36.588706 535.71315,51.093921"
       bendpath4="M 1.540333e-4,4.7013164e-6 V 51.093921"
       bendpath1-nodetypes="cc"
       bendpath3-nodetypes="cc" />
  </defs>
  <g
     inkscape:label="Слой 1"
     inkscape:groupmode="layer"
     id="layer1">
    <text
       xml:space="preserve"
       style="font-style:normal;font-variant:normal;font-weight:bold;font-stretch:normal;font-size:22.5778px;line-height:0;font-family:Alef;-inkscape-font-specification:'Alef, Bold';font-variant-ligatures:normal;font-variant-caps:normal;font-variant-numeric:normal;font-variant-east-asian:normal;text-align:center;text-anchor:middle;display:none;fill:#000000;fill-opacity:1;stroke-width:7.78499;stroke-linecap:round"
       x="41.020458"
       y="35.410824"
       id="text1"
       inkscape:label="text1"><tspan
         sodipodi:role="line"
         id="tspan2"
         x="41.020462"
         y="35.410824">PHOTOSPHERIC</tspan></text>
    <path
       d="m 18.98545,2.1981373 c 2.402326,0.1634225 4.496067,0.6202545 6.284293,1.3542772 1.815162,0.7146964 3.296714,1.6848187 4.4584,2.9048425 1.162355,1.2207269 1.994989,2.6805876 2.520216,4.385491 0.525535,1.7059 0.710402,3.632011 0.582024,5.79861 -0.13938,2.352256 -0.632356,4.404118 -1.516947,6.181286 -0.883545,1.755108 -2.10045,3.232927 -3.676012,4.439128 -1.574573,1.205444 -3.474426,2.139879 -5.711959,2.79527 -2.236374,0.655052 -4.747084,1.02078 -7.530872,1.077552 -1.289009,0.02629 -2.509597,0.01873 -3.662773,-0.02379 C 9.6009729,31.045763 8.5970023,30.977449 7.7194528,30.905991 7.9296072,37.110884 8.503999,43.314427 9.4426281,49.51662 6.2523145,49.762954 3.0623752,50.014006 -0.12717631,50.269784 -2.6285268,33.809766 -2.6302651,17.339687 -0.13239102,0.85954818 6.2391326,1.3181753 12.611768,1.7645563 18.98545,2.1981373 Z M 7.6316768,24.533825 c 0.7359356,0.110781 1.4607261,0.198622 2.1740738,0.263977 0.7364614,0.04322 1.4501694,0.06414 2.1408284,0.06316 1.772203,-0.0025 3.328122,-0.14704 4.66491,-0.42817 1.360353,-0.281243 2.492875,-0.742798 3.400908,-1.38134 0.931509,-0.638756 1.639235,-1.465467 2.132664,-2.481792 0.493826,-1.017144 0.774064,-2.275251 0.860244,-3.784289 0.08498,-1.488035 0.0054,-2.744535 -0.256187,-3.779021 C 22.489529,11.951467 22.017136,11.087854 21.322239,10.413689 20.627544,9.7397205 19.700579,9.2329231 18.537073,8.8957705 17.376476,8.5372179 15.946416,8.3134074 14.248675,8.2295283 12.366767,8.1365501 10.484967,8.0428374 8.603278,7.9484028 7.9904568,13.477948 7.6665898,19.006422 7.6316768,24.533825 Z M 85.37782,6.2265844 c -1.765806,12.7750716 -1.773889,25.5479076 -0.02425,38.3185096 -3.1954,0.172068 -6.390532,0.348789 -9.585383,0.530171 -0.894895,-6.395614 -1.351737,-12.791915 -1.370525,-19.188904 -7.332078,0.01599 -14.662453,0.03526 -21.990998,0.05824 0.02192,6.815708 0.527722,13.630323 1.517403,20.443845 -3.1935,0.202676 -6.386688,0.410032 -9.579551,0.622077 -2.114698,-14.379733 -2.109642,-28.764905 0.01517,-43.1555144 3.193897,0.1996785 6.388035,0.395961 9.582407,0.5887781 -0.75553,5.1742926 -1.232367,10.3479553 -1.430512,15.5209893 7.325624,0.105571 14.652993,0.208827 21.981989,0.309212 0.180181,-4.855081 0.612661,-9.710558 1.29744,-14.5664306 3.195392,0.1766557 6.390999,0.3496872 9.586812,0.519025 z m 32.82387,1.0659532 c 4.1207,0.1903682 7.55031,0.791259 10.29063,1.7767869 2.74512,0.9707385 4.92577,2.2479925 6.56279,3.8296095 1.66115,1.583395 2.81785,3.434245 3.49991,5.565987 0.68324,2.117639 1.00948,4.429775 1.00787,6.960316 -0.002,2.530525 -0.33077,4.849805 -1.01559,6.981739 -0.68513,2.115145 -1.84484,3.956267 -3.50787,5.537057 -1.63895,1.579097 -3.82029,2.860832 -6.5644,3.844098 -2.74299,0.966378 -6.17396,1.555205 -10.29447,1.742307 -4.05663,0.184202 -7.55648,-0.08408 -10.51228,-0.842756 -2.9523,-0.757781 -5.42168,-1.925093 -7.37694,-3.510808 -1.931646,-1.586034 -3.403805,-3.554595 -4.36574,-5.894472 -0.93859,-2.33961 -1.431643,-4.971929 -1.430207,-7.872273 0.0014,-2.900341 0.497098,-5.533036 1.438093,-7.873197 0.964339,-2.340428 2.438625,-4.30973 4.372124,-5.896242 1.95712,-1.586196 4.42807,-2.7537204 7.38158,-3.5108421 2.95701,-0.7580162 6.45763,-1.0247302 10.5145,-0.8373103 z m -0.55846,5.0060634 c -2.41455,-0.08067 -4.4624,0.127339 -6.14696,0.637078 -1.66002,0.510014 -3.03412,1.318071 -4.10687,2.428027 -1.04769,1.093009 -1.8297,2.48752 -2.31702,4.176859 -0.4863,1.671506 -0.74856,3.632802 -0.74976,5.868663 -0.001,2.235934 0.25896,4.205444 0.74446,5.893756 0.48509,1.672528 1.26522,3.066963 2.31309,4.176821 1.07045,1.093347 2.44271,1.893435 4.10205,2.404154 1.68385,0.510448 3.73126,0.71957 6.14572,0.640723 2.38985,-0.07804 4.36648,-0.409637 5.93049,-0.98566 1.58677,-0.593149 2.82176,-1.433122 3.71814,-2.519375 0.9198,-1.087225 1.54561,-2.428497 1.8998,-4.030362 0.37761,-1.60367 0.55177,-3.454983 0.55308,-5.571159 0.001,-2.116177 -0.17058,-3.967758 -0.54623,-5.571964 -0.35223,-1.602366 -0.97642,-2.944502 -1.89493,-4.032884 -0.8951,-1.087381 -2.12972,-1.920916 -3.71737,-2.499602 -1.56214,-0.593592 -3.53774,-0.935227 -5.92769,-1.015075 z m 68.71966,-2.033402 c -0.11771,1.443607 -0.2188,2.887241 -0.30327,4.330903 -4.8332,-0.09213 -9.66603,-0.191381 -14.49847,-0.297541 -0.59339,8.905664 -0.48345,17.812212 0.32981,26.719647 -3.19913,0.08878 -6.39811,0.182146 -9.59694,0.280096 -0.89137,-9.074232 -1.01227,-18.147696 -0.3627,-27.220392 -4.87791,-0.116348 -9.75541,-0.239598 -14.63246,-0.369537 0.12207,-1.555471 0.26822,-3.110928 0.43847,-4.6663704 12.87287,0.4764211 25.74823,0.8856655 38.62556,1.2231944 z m 29.64721,0.2016 c 4.12533,0.07409 7.59295,0.50016 10.40626,1.274649 2.81501,0.76142 5.08801,1.801045 6.82308,3.121366 1.7584,1.320774 3.01507,2.889824 3.77346,4.711953 0.75881,1.80944 1.13483,3.797892 1.13346,5.973108 -0.001,2.175221 -0.37988,4.169384 -1.1407,5.990253 -0.76077,1.807018 -2.01961,3.366342 -3.77965,4.682642 -1.73674,1.315938 -4.01085,2.356356 -6.82621,3.123775 -2.8148,0.75374 -6.28331,1.1637 -10.40884,1.226424 -4.05904,0.06171 -7.52921,-0.237 -10.42085,-0.914941 -2.89017,-0.677599 -5.27443,-1.670819 -7.13904,-2.985829 -1.84131,-1.315127 -3.21907,-2.923627 -4.10807,-4.821714 -0.86585,-1.898107 -1.30968,-4.02209 -1.30816,-6.361762 0.002,-2.339672 0.44811,-4.462407 1.31642,-6.358079 0.89147,-1.89559 2.2713,-3.500222 4.11427,-4.810171 1.86629,-1.309767 4.25179,-2.296274 7.14277,-2.965759 2.89248,-0.669831 6.36289,-0.958811 10.4218,-0.885915 z m -0.20394,4.158128 c -2.41677,-0.03222 -4.45114,0.168841 -6.10622,0.609375 -1.63134,0.440659 -2.96267,1.119303 -3.98778,2.03813 -1.00117,0.905081 -1.7311,2.050113 -2.17701,3.43276 -0.4455,1.368611 -0.67672,2.968762 -0.6779,4.795092 -0.001,1.82636 0.22799,3.433986 0.67215,4.817617 0.44398,1.370207 1.1723,2.517287 2.17291,3.438883 1.02352,0.90801 2.35367,1.583578 3.98448,2.028802 1.65453,0.445158 3.68868,0.651887 6.10551,0.626321 2.39306,-0.02531 4.38742,-0.267637 5.98399,-0.724915 1.61952,-0.471027 2.90072,-1.157938 3.84706,-2.060817 0.96952,-0.903125 1.65039,-2.029397 2.04808,-3.380491 0.42092,-1.351662 0.62762,-2.920121 0.62875,-4.710546 0.001,-1.790425 -0.2036,-3.359396 -0.62282,-4.71213 -0.39598,-1.352102 -1.07543,-2.480127 -2.0438,-3.385796 -0.94519,-0.905357 -2.22569,-1.588978 -3.84512,-2.050895 -1.59555,-0.474978 -3.5893,-0.729485 -5.98228,-0.76139 z m 32.66282,20.212515 c 1.9182,0.416486 3.96101,0.766638 6.12835,1.051615 2.19012,0.27176 4.56212,0.405991 7.11696,0.404326 0.586,-3.82e-4 1.15469,-0.01131 1.7061,-0.03281 1.00807,-0.03932 1.95843,-0.113958 2.85123,-0.223999 1.38116,-0.170231 2.56716,-0.438369 3.55829,-0.804936 1.01416,-0.366533 1.79897,-0.831543 2.35398,-1.395383 0.57808,-0.576919 0.8688,-1.265905 0.87093,-2.066924 0.002,-0.866709 -0.3079,-1.556449 -0.93087,-2.069239 -0.59983,-0.512744 -1.45433,-0.933711 -2.56343,-1.262904 -1.1091,-0.329191 -2.44959,-0.605951 -4.02142,-0.830335 0.009,0.0013 -2.14442,-0.307024 -2.13537,-0.305732 0.0305,0.0044 -3.1311,-0.451224 -3.10057,-0.446839 -2.15001,-0.317016 -4.11496,-0.680127 -5.8949,-1.089863 -1.75677,-0.4097 -3.2589,-0.93826 -4.50549,-1.586159 -1.24654,-0.647873 -2.21421,-1.447968 -2.90091,-2.400042 -0.68673,-0.952119 -1.02252,-2.128443 -1.0043,-3.527891 0.0122,-0.937315 0.29066,-1.77428 0.83278,-2.510188 0.56516,-0.735799 1.31334,-1.371044 2.24296,-1.905913 0.9299,-0.548077 1.99553,-1.009277 3.19637,-1.384207 1.22379,-0.374793 2.4913,-0.6771 3.80259,-0.907382 1.33426,-0.23017 2.68978,-0.395087 4.0669,-0.495074 1.15492,-0.08385 2.26086,-0.131537 3.31803,-0.142962 0.20342,-0.0022 0.40504,-0.0031 0.60487,-0.0026 0.87155,0.0021 1.91448,0.03056 3.12997,0.08476 1.23823,0.05423 2.54554,0.153726 3.92221,0.298264 1.39954,0.131407 2.83447,0.307862 4.30482,0.529321 1.49334,0.221436 2.93084,0.501169 4.31263,0.839658 -0.80405,1.145609 -1.61242,2.290225 -2.42409,3.434158 -1.84517,-0.379103 -3.76952,-0.686653 -5.77289,-0.923331 -1.98027,-0.236668 -4.06341,-0.356597 -6.24994,-0.36034 -0.64154,-0.0011 -1.2583,0.01186 -1.85033,0.03891 -0.68248,0.03117 -1.3321,0.08108 -1.94894,0.149786 -1.15185,0.115176 -2.1549,0.309156 -3.0094,0.582403 -0.83145,0.273317 -1.47985,0.632608 -1.9448,1.078136 -0.46495,0.445519 -0.70039,0.984006 -0.70528,1.615309 -0.006,0.815465 0.2666,1.454124 0.8183,1.915728 0.57478,0.461655 1.39309,0.838125 2.45475,1.129279 1.06166,0.291154 2.35484,0.542939 3.87955,0.755223 0.14177,0.01824 0.28519,0.03687 0.43026,0.05588 1.43834,0.188427 3.04032,0.414802 4.80327,0.678653 2.1261,0.316952 4.07921,0.692299 5.85916,1.12669 1.80304,0.421265 3.35203,0.973746 4.6462,1.658069 1.31727,0.671183 2.345,1.507043 3.08147,2.507644 0.73652,1.000679 1.10045,2.231503 1.08988,3.692062 -0.009,1.289406 -0.37778,2.393637 -1.10115,3.311935 -0.72341,0.918332 -1.66405,1.690849 -2.81998,2.317906 -1.15586,0.613946 -2.47,1.102504 -3.94222,1.466473 -1.4722,0.363964 -2.96547,0.643226 -4.48019,0.838054 -1.51474,0.194831 -2.9827,0.318524 -4.40445,0.37093 -0.98335,0.04533 -1.88423,0.0754 -2.70298,0.09002 -0.36509,0.0065 -0.71381,0.01 -1.0462,0.01032 -1.055,-0.01201 -2.2477,-0.04964 -3.57864,-0.112529 -1.30788,-0.06293 -2.68553,-0.164439 -4.13292,-0.304434 -1.44738,-0.139993 -2.91935,-0.32526 -4.41575,-0.555982 -1.47375,-0.244007 -2.90371,-0.540481 -4.2898,-0.88995 0.82559,-1.166219 1.65742,-2.330636 2.4944,-3.493594 z m 63.18504,-23.6936 c 2.4089,-0.03088 4.56239,0.133078 6.46385,0.497082 1.92345,0.350146 3.55908,0.88723 4.90409,1.614103 1.34489,0.726807 2.38748,1.636887 3.12029,2.730017 0.7327,1.092973 1.12052,2.35588 1.15349,3.784706 0.0358,1.551258 -0.37455,2.914669 -1.2221,4.084811 -0.84774,1.15669 -2.07435,2.119806 -3.6727,2.888776 -1.5986,0.7691 -3.53357,1.343805 -5.80204,1.726889 -2.26854,0.383097 -4.80042,0.567985 -7.59599,0.55905 -1.29373,-0.0041 -2.51817,-0.02793 -3.67295,-0.07126 -1.13171,-0.05659 -2.13611,-0.112538 -3.0138,-0.16801 -0.0315,3.707043 -0.11354,7.414193 -0.24622,11.121452 -3.20054,-0.03388 -6.40112,-0.06328 -9.60174,-0.08821 0.2458,-9.497734 0.25178,-18.994913 0.0179,-28.491538 6.38952,-0.04323 12.77884,-0.105959 19.16787,-0.187871 z m -9.32333,13.839507 c 0.7397,0.0664 1.46784,0.119591 2.18439,0.159526 0.73966,0.02663 1.45619,0.03997 2.1496,0.03998 1.77984,7e-6 3.33974,-0.08674 4.68015,-0.261154 1.36344,-0.174415 2.49527,-0.463218 3.39487,-0.867099 0.92262,-0.403867 1.61274,-0.929474 2.06834,-1.576477 0.45556,-0.646957 0.67633,-1.44904 0.65865,-2.40475 -0.0174,-0.942168 -0.20983,-1.735508 -0.57278,-2.378493 -0.36337,-0.656575 -0.93267,-1.182982 -1.70533,-1.579086 -0.77281,-0.396181 -1.76081,-0.675338 -2.96366,-0.83853 -1.20348,-0.176616 -2.65619,-0.256888 -4.35992,-0.242602 -1.88771,0.01583 -3.77545,0.03042 -5.66322,0.04376 0.0831,3.301556 0.12608,6.603198 0.12891,9.904925 z M 378.15651,9.6104796 c 1.07862,10.6472994 1.07463,21.2959554 -0.012,31.9459664 -3.19895,-0.104371 -6.39805,-0.20432 -9.59728,-0.29984 0.48468,-5.093562 0.7341,-10.186805 0.74826,-15.279731 -7.34546,-0.004 -14.69195,-0.0079 -22.03933,-0.01178 -0.0119,4.90217 -0.2084,9.804633 -0.58963,14.707387 -3.19981,-0.0753 -6.39973,-0.14615 -9.59975,-0.212554 0.68816,-9.915398 0.69327,-19.829643 0.0154,-29.742734 3.19978,-0.06626 6.39945,-0.137242 9.59901,-0.212895 0.28572,3.719868 0.46506,7.439904 0.53804,11.160109 7.34371,-0.04519 14.68655,-0.09713 22.02837,-0.155568 -0.0937,-3.864961 -0.32286,-7.729738 -0.68754,-11.5943324 3.19897,-0.096768 6.39778,-0.1981235 9.59645,-0.304029 z m 42.08862,-1.6533388 c 0.21108,1.6738383 0.39202,3.3477012 0.54281,5.0215892 -6.6808,0.216588 -13.36262,0.419601 -20.04535,0.608753 0.20901,2.534501 0.35149,5.069071 0.42746,7.603709 4.74235,-0.04985 9.48418,-0.102261 14.22547,-0.157179 0.0528,1.649401 0.0766,3.298827 0.0714,4.948279 -4.7436,-0.0033 -9.48777,-0.0065 -14.23246,-0.0094 -0.0117,3.864287 -0.17807,7.728732 -0.49901,11.593336 6.92469,0.191787 13.8484,0.39821 20.77098,0.61927 -0.15227,1.677233 -0.33483,3.354492 -0.54768,5.031775 -10.09613,-0.453785 -20.1944,-0.863765 -30.29439,-1.229738 1.20636,-10.939583 1.20998,-21.877816 0.0109,-32.814698 9.85838,-0.3628416 19.71513,-0.76844 29.56993,-1.2156782 z m 29.55814,-1.4655171 c 2.22246,-0.1194421 4.30279,-0.010502 6.24357,0.3388492 1.93778,0.3312594 3.65346,0.9065947 5.14008,1.7333856 1.4859,0.8263789 2.68573,1.9157955 3.58058,3.2668535 0.91768,1.349926 1.44887,2.955599 1.56709,4.80323 0.0958,1.49666 -0.15175,2.871652 -0.73159,4.114886 -0.57993,1.243456 -1.43538,2.326624 -2.55516,3.246279 -1.12025,0.901587 -2.45801,1.630182 -4.00598,2.188305 -1.5483,0.55824 -3.25928,0.918542 -5.13,1.088258 0,3e-6 -0.0357,0.08003 -0.0357,0.08003 0.91692,0.414125 1.80775,1.001091 2.66438,1.763693 0.85714,0.744693 1.67199,1.566658 2.43996,2.466348 0.7911,0.900172 1.52623,1.823956 2.20421,2.770848 0.70052,0.946788 1.32802,1.827132 1.88388,2.634243 2.04915,2.848964 4.00725,5.753567 5.86615,8.716713 -3.60705,-0.211702 -7.21446,-0.417845 -10.82221,-0.61842 -0.65067,-1.090096 -1.40579,-2.33701 -2.2608,-3.706999 -0.8328,-1.391442 -1.70016,-2.762742 -2.60047,-4.113993 -0.87656,-1.349366 -1.7382,-2.59142 -2.57131,-3.723453 -0.80678,-1.145943 -1.49031,-2.045766 -2.01579,-2.681993 -0.50769,-0.587117 -0.98867,-1.084098 -1.43848,-1.490969 -0.42697,-0.406844 -0.86961,-0.733706 -1.32583,-0.98115 -0.4563,-0.24749 -0.94928,-0.424547 -1.47809,-0.531884 -0.50583,-0.107216 -1.08154,-0.170946 -1.72728,-0.191741 -0.0923,-5.02e-4 -0.18457,-0.001 -0.27685,-0.0015 -0.085,5.507431 -0.50055,11.015061 -1.24677,16.52289 -3.19633,-0.162195 -6.39291,-0.320011 -9.58972,-0.473441 1.59254,-12.096758 1.59505,-24.192398 0.008,-36.2869198 6.07235,-0.2952166 12.14391,-0.6060852 18.21459,-0.9323445 z m -2.41619,16.1567653 c 1.49963,-0.01245 2.8234,-0.111163 3.97286,-0.298795 1.17186,-0.205504 2.14417,-0.526252 2.91549,-0.963954 0.79359,-0.455675 1.38503,-1.046104 1.76922,-1.770609 0.38403,-0.724202 0.54834,-1.609619 0.48365,-2.651545 -0.0647,-1.041916 -0.3383,-1.917163 -0.81054,-2.621057 -0.47245,-0.704221 -1.13378,-1.255843 -1.97842,-1.654639 -0.82364,-0.41764 -1.83107,-0.691053 -3.02103,-0.822813 -1.16903,-0.150384 -2.49952,-0.195069 -3.99383,-0.137415 -1.65482,0.06385 -3.30971,0.126861 -4.96467,0.18904 0.35549,3.590803 0.57041,7.181692 0.64476,10.772666 1.66092,-0.01346 3.32175,-0.02709 4.98251,-0.04088 z M 487.41803,4.2746588 c 2.10386,14.1871392 2.10231,28.3745412 -0.005,42.5622052 -3.19367,-0.204301 -6.38766,-0.404253 -9.58193,-0.599851 2.01967,-13.787395 2.02132,-27.574338 0.005,-41.3608266 3.19418,-0.1963686 6.38807,-0.3968905 9.58167,-0.6015276 z m 48.63076,44.6203272 c -2.13439,0.514904 -4.45452,0.865531 -6.96144,1.059682 -2.48707,0.218296 -4.98793,0.22452 -7.50319,0.03277 -4.27242,-0.32571 -7.82908,-1.064297 -10.66553,-2.178492 -2.8145,-1.135414 -5.02258,-2.679935 -6.66004,-4.623834 -1.63701,-1.967024 -2.73858,-4.335023 -3.36873,-7.125799 -0.62999,-2.817102 -0.88654,-6.07217 -0.86887,-9.830536 0.0185,-3.922629 0.28203,-7.326802 0.89746,-10.284984 0.63711,-2.952407 1.68924,-5.448319 3.22995,-7.5104103 1.53868,-2.0593998 3.59882,-3.6849428 6.22359,-4.8665745 2.64081,-1.2026234 5.93603,-1.9724804 9.88966,-2.2694827 1.39502,-0.1047959 2.77733,-0.1431616 4.14746,-0.112514 1.39313,0.028921 2.71268,0.1090694 3.95959,0.2420247 1.26973,0.1312367 2.4526,0.3048621 3.54912,0.5217339 1.11935,0.2151794 2.11387,0.4533888 2.98385,0.7142965 -0.42666,2.3473873 -0.90536,4.6782889 -1.43494,6.9929185 -1.68941,-0.5091953 -3.48716,-0.9248176 -5.39271,-1.2499986 -1.88522,-0.3487316 -3.84881,-0.4619901 -5.89122,-0.3517865 -2.45435,0.1324314 -4.4928,0.5925772 -6.11741,1.3634173 -1.62629,0.7716307 -2.89836,1.8692467 -3.8379,3.2888157 -0.91751,1.420145 -1.53457,3.172378 -1.88964,5.268652 -0.35565,2.099645 -0.50443,4.530746 -0.49998,7.329544 0.005,2.988792 0.17375,5.554582 0.57232,7.740921 0.39883,2.160895 1.08033,3.969099 2.08516,5.43708 1.00559,1.445222 2.36733,2.56013 4.10753,3.340074 1.76366,0.758808 3.95248,1.218798 6.56707,1.36242 1.99598,0.109641 4.01265,0.0449 6.04871,-0.204224 2.0594,-0.247927 3.97931,-0.610093 5.75975,-1.091102 0.40803,2.321242 0.76515,4.656322 1.07038,7.005389 z"
       id="text3"
       style="font-weight:bold;font-size:70.3701px;line-height:0;font-family:Alef;-inkscape-font-specification:'Alef, Bold';text-align:center;text-anchor:middle;stroke-width:24.2641;stroke-linecap:round"
       inkscape:label="text1"
       transform="scale(0.49388976,2.0247433)"
       aria-label="PHOTOSPHERIC"
       inkscape:path-effect="#path-effect10"
       inkscape:original-d="m 19.138898,0.85901473 c 2.405228,0 4.547026,0.33215057 6.425395,0.99645167 1.901275,0.6413941 3.504761,1.5920319 4.810456,2.8519133 1.305695,1.2598814 2.302147,2.8175529 2.989355,4.6730146 0.687208,1.8554617 1.030812,3.9858067 1.030812,6.3910347 0,2.611391 -0.423778,4.902084 -1.271335,6.87208 -0.847557,1.947089 -2.061624,3.573482 -3.642203,4.879177 -1.580578,1.305695 -3.493307,2.290694 -5.738187,2.954995 -2.244879,0.664301 -4.753189,0.996451 -7.524928,0.996451 -1.282788,0 -2.496855,-0.03436 -3.642202,-0.103081 -1.12244,-0.09163 -2.118892,-0.183255 -2.989355,-0.274883 V 50.269272 H 1.540333e-4 V 0.85901473 Z M 9.586706,24.533331 c 0.733022,0.114535 1.45459,0.206162 2.164705,0.274883 0.733022,0.04581 1.443137,0.06872 2.130345,0.06872 1.763834,0 3.310052,-0.148895 4.638654,-0.446685 1.351509,-0.29779 2.473949,-0.790289 3.36732,-1.477497 0.916277,-0.687208 1.603485,-1.580579 2.061624,-2.680112 0.458139,-1.099533 0.687208,-2.462495 0.687208,-4.088887 0,-1.603485 -0.171802,-2.954995 -0.515406,-4.054528 C 23.777552,11.006786 23.227786,10.101963 22.471857,9.4147547 21.715928,8.7275466 20.742383,8.2350475 19.551222,7.9372574 18.360062,7.6165603 16.916925,7.4562118 15.221812,7.4562118 H 9.586706 Z M 85.557553,0.85901473 V 50.269272 H 75.971001 V 26.182631 H 54.117786 V 50.269272 H 44.531234 V 0.85901473 h 9.586552 V 19.138748 H 75.971001 V 0.85901473 Z M 118.30302,0.10308591 c 4.12325,0 7.6051,0.6299407 10.44556,1.88982209 2.84046,1.2369745 5.14261,2.9779015 6.90644,5.222781 1.78674,2.2448793 3.06953,4.936444 3.84837,8.074694 0.77883,3.115343 1.16825,6.551384 1.16825,10.308121 0,3.756737 -0.38942,7.204231 -1.16825,10.34248 -0.77884,3.115343 -2.06163,5.795455 -3.84837,8.040334 -1.76383,2.24488 -4.06598,3.997261 -6.90644,5.257142 -2.84046,1.236974 -6.32231,1.855461 -10.44556,1.855461 -4.05453,0 -7.50202,-0.607034 -10.34248,-1.821101 -2.84046,-1.214067 -5.15406,-2.932087 -6.9408,-5.15406 -1.763836,-2.221973 -3.058079,-4.902084 -3.882729,-8.040334 -0.801743,-3.13825 -1.202614,-6.631557 -1.202614,-10.479922 0,-3.848365 0.400871,-7.341673 1.202614,-10.479923 0.82465,-3.13825 2.118893,-5.8183612 3.882729,-8.0403336 1.78674,-2.2219727 4.10034,-3.9399927 6.9408,-5.1540602 2.84046,-1.21406753 6.28795,-1.82110129 10.34248,-1.82110129 z m 0,7.04388229 c -2.40523,0 -4.42104,0.3894179 -6.04743,1.1682536 -1.60349,0.7788358 -2.89773,1.9470892 -3.88273,3.5047612 -0.96209,1.534765 -1.64929,3.458947 -2.06162,5.772547 -0.41233,2.290693 -0.61849,4.959351 -0.61849,8.005974 0,3.046622 0.20616,5.726733 0.61849,8.040334 0.41233,2.290693 1.09953,4.214876 2.06162,5.772547 0.985,1.534765 2.27924,2.691565 3.88273,3.470401 1.62639,0.778835 3.6422,1.168253 6.04743,1.168253 2.38232,0 4.37522,-0.377964 5.97871,-1.133893 1.62639,-0.778836 2.92063,-1.935636 3.88272,-3.470401 0.985,-1.534764 1.68366,-3.458946 2.09599,-5.772547 0.43523,-2.313601 0.65285,-5.005165 0.65285,-8.074694 0,-3.069529 -0.21762,-5.761094 -0.65285,-8.074695 -0.41233,-2.3136 -1.11099,-4.237782 -2.09599,-5.772547 -0.96209,-1.534765 -2.25633,-2.6801113 -3.88272,-3.4360402 -1.60349,-0.7788357 -3.59639,-1.1682536 -5.97871,-1.1682536 z M 186.47405,0.85901473 V 7.902897 h -14.43137 v 42.366375 h -9.58655 V 7.902897 H 147.88732 V 0.85901473 Z m 29.58431,-0.75592882 c 4.12325,0 7.6051,0.6299407 10.44556,1.88982209 2.84046,1.2369745 5.14261,2.9779015 6.90644,5.222781 1.78674,2.2448793 3.06953,4.936444 3.84837,8.074694 0.77883,3.115343 1.16825,6.551384 1.16825,10.308121 0,3.756737 -0.38942,7.204231 -1.16825,10.34248 -0.77884,3.115343 -2.06163,5.795455 -3.84837,8.040334 -1.76383,2.24488 -4.06598,3.997261 -6.90644,5.257142 -2.84046,1.236974 -6.32231,1.855461 -10.44556,1.855461 -4.05453,0 -7.50202,-0.607034 -10.34248,-1.821101 -2.84046,-1.214067 -5.15406,-2.932087 -6.9408,-5.15406 -1.76383,-2.221973 -3.05808,-4.902084 -3.88273,-8.040334 -0.80174,-3.13825 -1.20261,-6.631557 -1.20261,-10.479922 0,-3.848365 0.40087,-7.341673 1.20261,-10.479923 0.82465,-3.13825 2.1189,-5.8183612 3.88273,-8.0403336 1.78674,-2.2219727 4.10034,-3.9399927 6.9408,-5.1540602 2.84046,-1.21406753 6.28795,-1.82110129 10.34248,-1.82110129 z m 0,7.04388229 c -2.40523,0 -4.42104,0.3894179 -6.04743,1.1682536 -1.60349,0.7788358 -2.89773,1.9470892 -3.88273,3.5047612 -0.96209,1.534765 -1.64929,3.458947 -2.06162,5.772547 -0.41233,2.290693 -0.61849,4.959351 -0.61849,8.005974 0,3.046622 0.20616,5.726733 0.61849,8.040334 0.41233,2.290693 1.09953,4.214876 2.06162,5.772547 0.985,1.534765 2.27924,2.691565 3.88273,3.470401 1.62639,0.778835 3.6422,1.168253 6.04743,1.168253 2.38232,0 4.37522,-0.377964 5.97871,-1.133893 1.62639,-0.778836 2.92063,-1.935636 3.88272,-3.470401 0.985,-1.534764 1.68366,-3.458946 2.09599,-5.772547 0.43523,-2.313601 0.65285,-5.005165 0.65285,-8.074694 0,-3.069529 -0.21762,-5.761094 -0.65285,-8.074695 -0.41233,-2.3136 -1.11099,-4.237782 -2.09599,-5.772547 -0.96209,-1.534765 -2.25633,-2.6801113 -3.88272,-3.4360402 -1.60349,-0.7788357 -3.59639,-1.1682536 -5.97871,-1.1682536 z m 32.53929,34.5665638 c 1.90128,0.733022 3.92855,1.351509 6.0818,1.855462 2.17615,0.481045 4.53557,0.721568 7.07824,0.721568 1.6493,0 3.16116,-0.148895 4.53557,-0.446685 1.37442,-0.29779 2.55413,-0.767382 3.53912,-1.408777 1.00791,-0.641394 1.78674,-1.45459 2.33651,-2.439588 0.57267,-1.007905 0.85901,-2.210519 0.85901,-3.607842 0,-1.511858 -0.30924,-2.714472 -0.92773,-3.607842 -0.59558,-0.893371 -1.44314,-1.626393 -2.54267,-2.199066 -1.09953,-0.572673 -2.42814,-1.053719 -3.98581,-1.443137 -1.55767,-0.389418 -3.28714,-0.82465 -5.18842,-1.305695 -2.13035,-0.549767 -4.07744,-1.179707 -5.84127,-1.889822 -1.74093,-0.710115 -3.22988,-1.626393 -4.46685,-2.748832 -1.23697,-1.12244 -2.19906,-2.50831 -2.88627,-4.157609 -0.68721,-1.649299 -1.03081,-3.688016 -1.03081,-6.116151 0,-1.626393 0.26343,-3.0809831 0.79029,-4.3637714 0.54976,-1.2827883 1.28278,-2.3937746 2.19906,-3.3329589 0.91628,-0.9620913 1.97,-1.7752874 3.16116,-2.4395885 1.21407,-0.6643011 2.47395,-1.202614 3.77964,-1.6149389 1.32861,-0.41232479 2.68012,-0.71011492 4.05453,-0.89337039 1.37441,-0.18325547 2.68011,-0.2748832086836 3.91708,-0.2748832086836 0.87047,0 1.91273,0.045813868684 3.1268,0.1374416086836 1.23697,0.0916277 2.54267,0.26342974 3.91709,0.51540602 1.39732,0.22906934 2.829,0.53831297 4.29505,0.92773087 1.48895,0.3894179 2.92063,0.8819169 4.29505,1.4774972 l -2.43959,5.9787099 c -1.83255,-0.6643011 -3.74528,-1.2026141 -5.73819,-1.6149389 -1.96999,-0.4123248 -4.04307,-0.6184872 -6.21923,-0.6184872 -1.37441,0 -2.63429,0.1145347 -3.77964,0.343604 -1.14535,0.2061624 -2.1418,0.5497664 -2.98936,1.030812 -0.82465,0.4810456 -1.46604,1.1109862 -1.92418,1.8898218 -0.45814,0.778836 -0.68721,1.71802 -0.68721,2.817553 0,1.42023 0.27488,2.531216 0.82465,3.332959 0.57267,0.801743 1.38587,1.45459 2.43959,1.958543 1.05372,0.503953 2.33651,0.939184 3.84836,1.305695 1.53477,0.343604 3.26424,0.767382 5.18842,1.271335 2.10744,0.549767 4.04308,1.202614 5.80691,1.958543 1.78674,0.733022 3.32151,1.695113 4.6043,2.886274 1.30569,1.168253 2.32505,2.622844 3.05807,4.363771 0.73302,1.740927 1.09953,3.882725 1.09953,6.425395 0,2.244879 -0.35506,4.169062 -1.06517,5.772547 -0.71011,1.603485 -1.63784,2.954994 -2.78319,4.054527 -1.14535,1.076626 -2.45104,1.935636 -3.91709,2.577031 -1.46604,0.641394 -2.95499,1.133893 -4.46685,1.477497 -1.51186,0.343604 -2.9779,0.56122 -4.39813,0.652847 -1.42023,0.114535 -2.66866,0.171802 -3.74528,0.171802 -1.05372,-0.02291 -2.24488,-0.09163 -3.57349,-0.206162 -1.30569,-0.114535 -2.68011,-0.29779 -4.12324,-0.549766 -1.44314,-0.251977 -2.90919,-0.584127 -4.39814,-0.996452 -1.46604,-0.435232 -2.88627,-0.962091 -4.26069,-1.580578 z M 311.58027,0.85901473 c 2.40523,0 4.54703,0.33215057 6.4254,0.99645167 1.90127,0.6413941 3.50476,1.5920319 4.81045,2.8519133 1.3057,1.2598814 2.30215,2.8175529 2.98936,4.6730146 0.68721,1.8554617 1.03081,3.9858067 1.03081,6.3910347 0,2.611391 -0.42378,4.902084 -1.27133,6.87208 -0.84756,1.947089 -2.06163,3.573482 -3.64221,4.879177 -1.58057,1.305695 -3.4933,2.290694 -5.73818,2.954995 -2.24488,0.664301 -4.75319,0.996451 -7.52493,0.996451 -1.28279,0 -2.49685,-0.03436 -3.6422,-0.103081 -1.12244,-0.09163 -2.11889,-0.183255 -2.98936,-0.274883 v 19.173104 h -9.58655 V 0.85901473 Z M 302.02808,24.533331 c 0.73302,0.114535 1.45459,0.206162 2.16471,0.274883 0.73302,0.04581 1.44313,0.06872 2.13034,0.06872 1.76383,0 3.31005,-0.148895 4.63866,-0.446685 1.35151,-0.29779 2.47395,-0.790289 3.36732,-1.477497 0.91627,-0.687208 1.60348,-1.580579 2.06162,-2.680112 0.45814,-1.099533 0.68721,-2.462495 0.68721,-4.088887 0,-1.603485 -0.1718,-2.954995 -0.51541,-4.054528 -0.3436,-1.122439 -0.89337,-2.027263 -1.6493,-2.7144713 -0.75593,-0.6872081 -1.72947,-1.1797072 -2.92063,-1.4774973 -1.19116,-0.3206971 -2.6343,-0.4810456 -4.32941,-0.4810456 h -5.63511 z M 377.99891,0.85901473 V 50.269272 h -9.58655 V 26.182631 h -21.85321 v 24.086641 h -9.58656 V 0.85901473 h 9.58656 V 19.138748 h 21.85321 V 0.85901473 Z m 42.05714,0 V 7.902897 h -19.9634 v 11.201491 h 14.12213 v 7.043882 h -14.12213 v 17.07712 h 20.68497 v 7.043882 H 390.5061 V 0.85901473 Z m 29.54995,0 c 2.22197,0 4.27215,0.28633667 6.15052,0.85901007 1.87837,0.5497664 3.50476,1.3858695 4.87917,2.5083093 1.37442,1.1224397 2.43959,2.5426696 3.19552,4.2606897 0.77883,1.7180202 1.16825,3.7223772 1.16825,6.0130702 0,1.855462 -0.30924,3.550575 -0.92773,5.085339 -0.61849,1.534765 -1.48895,2.87482 -2.61139,4.020167 -1.12244,1.12244 -2.45104,2.038718 -3.9858,2.748833 -1.53477,0.710115 -3.22988,1.179707 -5.08534,1.408776 l -0.0344,0.103081 c 0.91627,0.526859 1.80964,1.271335 2.68011,2.233426 0.87046,0.939185 1.70656,1.969997 2.50831,3.092436 0.82465,1.12244 1.60348,2.267787 2.3365,3.436041 0.75593,1.168253 1.44314,2.244879 2.06163,3.229877 l 6.80336,10.411202 h -10.82353 c -0.80174,-1.328602 -1.70656,-2.84046 -2.71447,-4.535573 -0.985,-1.71802 -1.98145,-3.424587 -2.98936,-5.1197 -0.98499,-1.695113 -1.92418,-3.264238 -2.81755,-4.707375 -0.87046,-1.466044 -1.58057,-2.611391 -2.13034,-3.43604 -0.52686,-0.755929 -1.01936,-1.397323 -1.4775,-1.924183 -0.43523,-0.526859 -0.88192,-0.950637 -1.34006,-1.271334 -0.45814,-0.320697 -0.95064,-0.549767 -1.47749,-0.687208 -0.50395,-0.137442 -1.07663,-0.217616 -1.71802,-0.240523 h -0.27489 v 21.921936 h -9.58655 V 0.85901473 Z M 445.92944,21.750139 c 1.48895,0 2.8061,-0.114535 3.95145,-0.343604 1.16825,-0.251977 2.1418,-0.652848 2.92063,-1.202614 0.80174,-0.572673 1.40877,-1.317149 1.8211,-2.233426 0.41233,-0.916277 0.61849,-2.038717 0.61849,-3.36732 0,-1.328602 -0.20616,-2.451042 -0.61849,-3.367319 -0.41233,-0.916277 -1.01936,-1.6492993 -1.8211,-2.1990657 -0.77883,-0.5726734 -1.75238,-0.9735448 -2.92063,-1.2026141 -1.14535,-0.2519763 -2.4625,-0.3779644 -3.95145,-0.3779644 h -4.9479 V 21.750139 Z M 487.23063,0.85901473 V 50.269272 h -9.58655 V 0.85901473 Z M 535.71315,48.894856 c -2.03871,0.664301 -4.28359,1.19116 -6.73463,1.580578 -2.42814,0.412325 -4.90209,0.618487 -7.42185,0.618487 -4.2836,0 -7.91435,-0.492499 -10.89225,-1.477497 -2.95499,-1.007905 -5.36022,-2.531216 -7.21568,-4.569933 -1.85547,-2.061624 -3.19552,-4.638654 -4.02017,-7.73109 -0.82465,-3.115343 -1.23697,-6.780453 -1.23697,-10.995329 0,-4.398131 0.40087,-8.235043 1.20261,-11.510734 0.82465,-3.275692 2.11889,-6.0016171 3.88273,-8.1777758 1.76383,-2.1761588 4.03162,-3.8025511 6.80335,-4.879177 2.79465,-1.09953286 6.17342,-1.64929929 10.13632,-1.64929929 1.39733,0 2.77174,0.0687208 4.12325,0.2061624 1.37442,0.13744161 2.66866,0.32069708 3.88273,0.54976642 1.23697,0.22906927 2.38232,0.49249907 3.43604,0.79028927 1.07663,0.2977901 2.02726,0.6070337 2.85191,0.9277308 l -2.26779,6.9064407 c -1.62639,-0.5955803 -3.36731,-1.1109864 -5.22278,-1.5462181 -1.83255,-0.4581387 -3.76819,-0.687208 -5.80691,-0.687208 -2.45104,0 -4.52412,0.3665109 -6.21923,1.0995328 -1.69511,0.7330219 -3.06953,1.8440078 -4.12325,3.3329588 -1.03081,1.488951 -1.77528,3.367319 -2.23342,5.635106 -0.45814,2.267787 -0.68721,4.924991 -0.68721,7.971613 0,3.252785 0.25198,6.058884 0.75593,8.418298 0.50395,2.336507 1.31715,4.272143 2.43959,5.806908 1.12244,1.511858 2.58848,2.634298 4.39813,3.36732 1.83255,0.710115 4.05453,1.065172 6.66592,1.065172 1.9929,0 3.9858,-0.183255 5.97871,-0.549766 2.01581,-0.366511 3.88272,-0.836104 5.60074,-1.408777 z"
       sodipodi:nodetypes="scssscssscccccsccsccsscscscccccccccccccccscccscccssccsccssscccscccscccscccscccccccccscccscccssccsccssscccscccscccscccsccssccscssccsssccccssccccccsccsscsccccssscsscccscccscssscssscccccsccsccsscscsccccccccccccccccccccccccccccscscsscscccccccccccccsccccccssccsssccsccscccccccscccscscsccccccsscsscccsccc" />
    <ellipse
       style="display:none;fill:#261dcf;fill-opacity:0.286567;stroke-width:34.8241;stroke-linecap:round"
       id="path12"
       cx="132.29167"
       cy="0"
       rx="132.29167"
       ry="22.087938" />
    <ellipse
       style="display:none;fill:#261dcf;fill-opacity:0.286567;stroke-width:34.8241;stroke-linecap:round"
       id="ellipse12"
       cx="132.29195"
       cy="103.45208"
       rx="132.29167"
       ry="22.087938" />
  </g>
</svg>
